<?xml version="1.0" encoding="utf-8"?>
<!-- Generator: Adobe Illustrator 16.0.0, SVG Export Plug-In . SVG Version: 6.00 Build 0)  -->
<!DOCTYPE svg PUBLIC "-//W3C//DTD SVG 1.1//EN" "http://www.w3.org/Graphics/SVG/1.1/DTD/svg11.dtd">
<svg version="1.1" id="Layer_1" xmlns="http://www.w3.org/2000/svg" xmlns:xlink="http://www.w3.org/1999/xlink" x="0px" y="0px"
	 width="694.262px" height="223.667px" viewBox="0 0 694.262 223.667" enable-background="new 0 0 694.262 223.667"
	 xml:space="preserve">
<path fill-rule="evenodd" clip-rule="evenodd" fill="#FFFFFF" d="M508.311,67.395c7.055-10.981,21.247-11.498,26.91-1.404
	c1.196-0.959,2.535-1.938,3.769-3.038c7.27-6.479,18.454-5.457,22.858,2.141c1.763,3.043,2.287,6.436,2.303,9.872
	c0.038,8.839-0.094,17.68-0.037,26.519c0.013,1.971-0.591,2.65-2.574,2.565c-3.007-0.129-6.029-0.083-9.037,0.058
	c-1.736,0.082-2.229-0.534-2.21-2.226c0.078-7.232,0.054-14.465,0.021-21.697c-0.007-1.499-0.092-3.018-0.349-4.491
	c-0.594-3.426-2.367-5.141-5.452-5.486c-3.189-0.357-5.981,1.297-7.193,4.294c-0.65,1.607-0.819,3.293-0.814,5.021
	c0.017,7.333-0.07,14.667,0.043,21.999c0.03,1.98-0.506,2.685-2.518,2.578c-2.804-0.149-5.632-0.175-8.433,0.003
	c-2.174,0.138-2.962-0.415-2.911-2.771c0.155-7.128,0.063-14.263,0.013-21.396c-0.011-1.495-0.136-3.012-0.414-4.479
	c-0.539-2.822-2.08-4.722-5.131-5.105c-3.113-0.391-5.905,0.938-7.34,3.613c-1.128,2.103-1.302,4.394-1.286,6.726
	c0.046,6.931,0.018,13.863,0.139,20.792c0.034,1.91-0.476,2.731-2.517,2.637c-3.007-0.14-6.031-0.149-9.037,0.007
	c-1.955,0.102-2.327-0.709-2.322-2.451c0.04-13.159,0.029-26.318-0.051-39.478c-0.012-1.792,0.417-2.524,2.334-2.423
	c2.906,0.153,5.828,0.139,8.735,0.027c1.92-0.074,2.789,0.488,2.534,2.546C508.174,63.702,508.311,65.097,508.311,67.395z"/>
<path fill-rule="evenodd" clip-rule="evenodd" fill="#FFFFFF" d="M354.873,184.498c-7.266,0-7.266,0-9.435-7.102
	c-2.265-7.418-2.265-7.42-10.168-7.393c-3.817,0.012-7.637,0.098-11.453,0.014c-1.586-0.034-2.312,0.509-2.714,2.059
	c-0.91,3.492-2.088,6.916-3.003,10.406c-0.408,1.555-1.167,2.072-2.737,2.025c-3.413-0.104-6.834-0.137-10.246-0.002
	c-2.178,0.086-2.802-0.304-1.999-2.642c3.848-11.195,7.521-22.45,11.255-33.686c2.912-8.76,5.869-17.506,8.686-26.297
	c0.589-1.837,1.446-2.533,3.395-2.468c4.014,0.135,8.039,0.11,12.053-0.032c1.924-0.068,2.784,0.6,3.386,2.451
	c5.367,16.501,10.833,32.972,16.291,49.443c1.23,3.715,2.488,7.422,3.846,11.092c0.578,1.563,0.368,2.23-1.431,2.15
	C358.694,184.431,356.781,184.498,354.873,184.498z M332.041,131.558c-1.745,8.95-4.598,17.008-6.787,25.244
	c-0.479,1.803-0.188,2.34,1.665,2.287c3.714-0.104,7.433-0.121,11.148-0.064c1.525,0.021,1.896-0.355,1.436-1.898
	C337.015,148.803,334.625,140.451,332.041,131.558z"/>
<path fill-rule="evenodd" clip-rule="evenodd" fill="#FFFFFF" d="M295.755,87.862c6.5,4.095,13.014,6.379,20.333,5.517
	c0.893-0.105,1.783-0.284,2.656-0.502c3.01-0.752,5.016-2.564,5.437-5.712c0.391-2.919-1.147-4.971-3.427-6.565
	c-1.822-1.272-3.833-2.167-5.88-3.008c-4.638-1.906-9.336-3.683-13.423-6.71c-10.023-7.425-9.72-22.634,0.702-29.471
	c8.098-5.313,17.13-5.17,26.196-3.814c7.431,1.112,7.405,1.299,7.44,8.881c0.008,1.89,0.001,3.779,0.001,6.052
	c-4.538-2.109-8.893-3.837-13.692-3.914c-2.933-0.046-5.834,0.053-8.563,1.263c-4.592,2.036-5.353,7.174-1.571,10.5
	c2.233,1.964,4.966,3.015,7.674,4.072c3.654,1.426,7.222,3.026,10.622,4.979c7.066,4.06,9.79,10.303,9.027,18.248
	c-0.74,7.721-4.924,12.839-12.13,15.337c-9.869,3.422-19.769,2.51-29.628-0.278c-1.448-0.409-1.826-1.2-1.798-2.604
	C295.805,96.229,295.755,92.322,295.755,87.862z"/>
<path fill-rule="evenodd" clip-rule="evenodd" fill="#FFFFFF" d="M404.588,67.397c3.59-4.958,7.489-7.979,12.921-8.634
	c7.829-0.943,13.817,3.294,15.462,11.007c0.549,2.579,0.58,5.181,0.577,7.794c-0.006,8.036-0.051,16.071,0.038,24.105
	c0.02,1.828-0.508,2.485-2.37,2.411c-3.008-0.119-6.03-0.114-9.036,0.043c-1.926,0.102-2.608-0.394-2.556-2.469
	c0.16-6.324,0.09-12.654,0.096-18.981c0.001-1.807,0.036-3.62-0.087-5.421c-0.307-4.428-2.277-6.589-6.084-6.814
	c-4.462-0.263-7.848,2.186-8.432,6.376c-0.315,2.271-0.238,4.604-0.252,6.91c-0.033,5.926-0.09,11.853,0.017,17.777
	c0.036,1.969-0.583,2.657-2.562,2.58c-3.208-0.124-6.428-0.08-9.639,0.024c-1.467,0.047-1.877-0.445-1.871-1.891
	c0.048-13.459,0.054-26.918-0.004-40.377c-0.006-1.638,0.605-2.087,2.111-2.048c3.212,0.083,6.43,0.125,9.642,0.046
	c1.565-0.038,2.173,0.468,2.053,2.062C404.498,63.449,404.588,65.016,404.588,67.397z"/>
<path fill-rule="evenodd" clip-rule="evenodd" fill="#FFFFFF" d="M630.534,67.251c4.747-6.734,10.349-9.578,17.646-8.208
	c5.17,0.971,8.619,4.12,10.205,9.145c0.756,2.396,1.121,4.891,1.116,7.419c-0.014,8.635-0.115,17.272,0.005,25.906
	c0.032,2.244-0.758,2.698-2.765,2.586c-2.703-0.15-5.432-0.161-8.13,0.036c-2.289,0.167-3.129-0.423-3.062-2.912
	c0.188-6.923,0.086-13.855,0.075-20.783c-0.001-1.202-0.033-2.412-0.182-3.601c-0.527-4.233-2.058-6.004-5.461-6.444
	c-3.887-0.501-7.046,1.243-8.51,4.738c-0.589,1.406-0.763,2.887-0.76,4.417c0.017,7.33-0.08,14.662,0.027,21.99
	c0.028,1.971-0.484,2.646-2.499,2.548c-3.104-0.152-6.226-0.076-9.335,0.017c-1.575,0.047-2.074-0.538-2.071-2.097
	c0.032-13.355,0.031-26.711-0.055-40.066c-0.012-1.827,0.705-2.182,2.303-2.132c2.908,0.093,5.827,0.128,8.732-0.008
	c2.056-0.096,2.973,0.555,2.743,2.702C630.422,63.78,630.534,65.082,630.534,67.251z"/>
<path fill-rule="evenodd" clip-rule="evenodd" fill="#FFFFFF" d="M499.498,171.296c2.13-9.936,5.265-18.933,7.614-28.144
	c0.569-2.23,1.584-3.101,3.901-2.932c2.797,0.204,5.626,0.218,8.426,0.05c2.192-0.13,2.306,0.559,1.611,2.374
	c-4.016,10.488-7.898,21.026-11.92,31.511c-2.402,6.268-4.514,12.67-7.853,18.538c-3.563,6.265-8.679,10.67-15.569,13.009
	c-1.661,0.564-2.679,0.373-3.293-1.307c-0.103-0.279-0.287-0.527-0.427-0.795c-1.063-2.045-3.083-4.176-2.915-6.115
	c0.166-1.934,3.489-2.094,5.235-3.361c1.636-1.186,3.178-2.449,4.419-4.055c2.47-3.199,3.428-6.346,1.713-10.523
	c-4.913-11.961-9.323-24.127-14.071-36.157c-1.029-2.609-0.415-3.304,2.225-3.167c3.005,0.155,6.027,0.16,9.033,0.036
	c1.958-0.081,2.728,0.666,3.249,2.557c2.511,9.08,5.206,18.111,7.846,27.155C498.794,170.22,498.988,170.435,499.498,171.296z"/>
<path fill-rule="evenodd" clip-rule="evenodd" fill="#FFFFFF" d="M379.049,146.797c4.436-5.557,9.742-8.252,16.557-7.327
	c7.381,1.001,11.65,6.156,11.876,14.694c0.249,9.43,0.047,18.87,0.125,28.305c0.013,1.634-0.585,2.049-2.11,2.004
	c-3.108-0.094-6.228-0.125-9.332,0.019c-1.908,0.089-2.378-0.646-2.359-2.431c0.078-7.125,0.027-14.252,0.023-21.379
	c0-0.803,0.021-1.607-0.025-2.408c-0.291-4.938-2.609-7.5-6.796-7.528c-4.286-0.029-7.675,3.301-7.737,7.932
	c-0.102,7.527-0.157,15.061,0.059,22.584c0.078,2.741-0.753,3.51-3.361,3.267c-2.389-0.222-4.824-0.181-7.22-0.001
	c-2.427,0.182-3.284-0.572-3.245-3.139c0.155-10.236,0.088-20.477,0.103-30.714c0.003-2.81,0.074-5.623-0.025-8.431
	c-0.056-1.61,0.56-2.085,2.107-2.028c2.907,0.107,5.828,0.176,8.729,0.013c2.15-0.121,2.875,0.667,2.657,2.732
	C378.941,144.227,379.049,145.518,379.049,146.797z"/>
<path fill-rule="evenodd" clip-rule="evenodd" fill="#FFFFFF" d="M382.34,91.412c0.096,1.632,0.18,2.813,0.229,3.995
	c0.29,6.873,0.311,6.983-6.38,8.461c-7.576,1.673-15.125,1.958-22.382-1.507c-1.731-0.825-3.302-1.9-4.688-3.235
	c-6.482-6.242-8.261-18.939-3.988-28.471c3.582-7.991,12.145-12.7,21.756-11.963c11.855,0.91,18.23,7.705,18.81,20.049
	c0.355,7.571,0.355,7.548-7.143,7.489c-6.426-0.05-12.854,0.063-19.275-0.107c-2.364-0.063-2.409,0.832-1.873,2.636
	c1.06,3.574,4.656,6.181,9.238,6.505C372.115,95.653,377.192,94.315,382.34,91.412z M364.793,78.297
	c2.204,0,4.406,0.003,6.608-0.002c0.697-0.002,1.354,0.059,1.585-0.924c0.976-4.139-2.641-9.008-6.919-9.242
	c-4.486-0.246-7.763,2.531-8.833,7.315c-0.436,1.947-0.277,3.088,2.155,2.875C361.178,78.164,362.992,78.29,364.793,78.297z"/>
<path fill-rule="evenodd" clip-rule="evenodd" fill="#FFFFFF" d="M608.527,91.407c0,2.479-0.299,4.439,0.063,6.268
	c0.717,3.616-1.016,4.854-4.18,5.717c-5.32,1.45-10.681,1.938-16.102,1.366c-11.909-1.255-18.411-8.44-19.315-21.076
	c-1.241-17.354,13.047-28.972,29.589-24.065c7.776,2.306,11.386,8.042,12.822,15.559c0.53,2.772,0.45,5.585,0.54,8.393
	c0.064,2.061-0.524,2.745-2.686,2.707c-7.928-0.139-15.86,0.023-23.787-0.12c-2.3-0.042-2.466,0.729-1.875,2.583
	c1.042,3.277,3.251,5.247,6.514,6.027c5.509,1.318,10.752,0.302,15.814-2.007C606.635,92.436,607.312,92.041,608.527,91.407z
	 M591.054,78.269c0,0.01,0,0.02,0,0.029c2.102,0,4.204,0.016,6.305-0.008c0.765-0.008,1.561,0.148,1.783-1.048
	c0.956-5.123-3.648-9.86-8.885-9.066c-3.904,0.591-7.378,5.025-7.128,8.911c0.081,1.269,0.843,1.164,1.619,1.174
	C586.85,78.286,588.952,78.269,591.054,78.269z"/>
<path fill-rule="evenodd" clip-rule="evenodd" fill="#FFFFFF" d="M438.999,178.39c-4.576,5.719-10,8.029-16.729,6.74
	c-5.158-0.988-8.811-4.563-9.77-9.442c-1.223-6.231,0.787-11.685,5.361-14.595c4.221-2.686,9.037-3.139,13.823-3.695
	c1.396-0.162,2.806-0.205,4.206-0.334c3.227-0.296,3.691-1.123,2.238-4.099c-1.561-3.195-4.495-3.8-7.619-3.795
	c-4.934,0.007-9.492,1.383-13.763,4.433c-0.33-3.376-0.579-6.447-0.955-9.502c-0.138-1.119,0.538-1.41,1.282-1.71
	c7.754-3.124,15.701-4.238,23.863-1.912c6.412,1.827,10.063,6.352,10.61,12.837c0.83,9.816,0.119,19.684,0.261,29.527
	c0.02,1.402-0.729,1.65-1.896,1.633c-2.612-0.039-5.242-0.205-7.833,0.031c-2.604,0.236-3.438-0.765-3.098-3.197
	C439.088,180.549,438.999,179.761,438.999,178.39z M437.229,164.371c-3.77,0.496-6.5,0.596-9.026,1.694
	c-2.6,1.13-3.46,3.29-3.036,5.921c0.431,2.674,2.294,3.869,4.884,4.033c5.018,0.318,8.757-3.27,8.96-8.43
	C439.094,165.468,438.842,163.937,437.229,164.371z"/>
<path fill-rule="evenodd" clip-rule="evenodd" fill="#FFFFFF" d="M587.688,166.999c-4.016,0-8.033,0.064-12.047-0.032
	c-1.617-0.038-1.881,0.578-1.537,1.963c0.893,3.598,3.242,5.69,6.751,6.514c5.34,1.252,10.38,0.135,15.139-2.316
	c1.9-0.978,2.513-0.803,2.661,1.461c0.521,7.935,0.26,8.385-7.539,9.982c-4.145,0.848-8.322,1.324-12.546,0.648
	c-12.554-2.011-19.203-10.1-18.738-22.799c0.167-4.561,0.941-8.975,3.291-12.989c5.998-10.248,21.943-13.5,31.465-6.336
	c4.452,3.35,6.265,8.205,7.104,13.496c0.427,2.688,0.205,5.408,0.251,8.117c0.033,1.932-0.771,2.341-2.508,2.295
	c-3.912-0.102-7.83-0.031-11.746-0.031C587.688,166.98,587.688,166.989,587.688,166.999z M581.482,159.044c0,0.006,0,0.012,0,0.018
	c2.105,0,4.214-0.055,6.317,0.02c1.366,0.047,1.658-0.541,1.646-1.805c-0.043-4.971-3.08-8.376-7.548-8.321
	c-4.367,0.054-8.001,4.01-8.013,8.549c-0.004,1.271,0.504,1.558,1.579,1.546C577.469,159.029,579.476,159.044,581.482,159.044z"/>
<path fill-rule="evenodd" clip-rule="evenodd" fill="#FFFFFF" d="M457.856,52.646c-0.01,7.124-0.009,7.234,7.194,7.12
	c2.415-0.038,3.021,0.672,2.979,3.023c-0.12,7.039-0.02,7.185-6.923,7.085c-2.747-0.04-3.411,0.9-3.319,3.453
	c0.17,4.717,0.018,9.445,0.035,14.167c0.021,5.642,2.377,7.854,7.883,6.966c2.086-0.336,2.426,0.28,2.256,2.023
	c-0.066,0.696,0.005,1.406,0.012,2.109c0.059,5.756-0.023,5.86-5.906,6.234c-1.401,0.09-2.813,0.065-4.219,0.034
	c-9.424-0.212-13.74-4.503-13.895-13.971c-0.099-6.028-0.121-12.061,0.023-18.087c0.054-2.197-0.471-3.28-2.798-2.853
	c-3.063,0.561-4.225-0.701-3.671-3.721c0.105-0.583,0.018-1.203,0.013-1.806c-0.036-4.377-0.039-4.513,4.264-4.559
	c2.127-0.023,2.105-1.097,2.147-2.636c0.078-2.774-1.166-6.287,0.594-8.113c1.599-1.657,5.022-1.56,7.646-2.222
	c5.677-1.435,5.678-1.431,5.685,4.545C457.858,51.842,457.856,52.244,457.856,52.646z"/>
<path fill-rule="evenodd" clip-rule="evenodd" fill="#FFFFFF" d="M670.101,81.646c0-3.014-0.137-6.036,0.047-9.039
	c0.126-2.086-0.468-2.812-2.625-2.769c-3.938,0.079-3.941-0.046-3.94-4.047c0-0.502,0.004-1.005,0.006-1.507
	c0.021-4.29,0.021-4.409,4.149-4.369c1.946,0.019,2.286-0.713,2.352-2.452c0.105-2.851-1.23-6.476,0.704-8.343
	c1.754-1.694,5.232-1.62,7.96-2.285c5.331-1.299,5.333-1.288,5.316,4.093c0,0.201-0.008,0.402-0.001,0.603
	c0.079,2.602-0.779,5.902,0.495,7.619c1.385,1.867,4.872,0.565,7.436,0.67c1.498,0.062,2.06,0.398,2.136,2.023
	c0.375,7.965,0.428,8.038-7.444,8.019c-2.109-0.005-2.771,0.611-2.721,2.709c0.124,5.02,0.021,10.046,0.022,15.069
	c0.002,5.63,2.356,7.761,7.916,6.788c1.867-0.327,2.335,0.077,2.158,1.812c-0.092,0.895-0.028,1.807-0.035,2.711
	c-0.04,5.333-0.121,5.488-5.41,5.862c-2.197,0.155-4.433,0.161-6.62-0.059c-7.931-0.792-11.598-4.949-11.917-13.465
	c-0.12-3.21-0.02-6.43-0.02-9.644C670.078,81.646,670.089,81.646,670.101,81.646z"/>
<path fill-rule="evenodd" clip-rule="evenodd" fill="#FFFFFF" d="M541.283,150.682c-4.799,0-9.677-0.085-14.547,0.043
	c-1.935,0.051-2.602-0.476-2.635-2.491c-0.13-8.02-0.196-8.027,7.75-8.006c7.634,0.021,15.267,0.113,22.899,0.057
	c1.826-0.014,2.305,0.532,2.417,2.375c0.242,3.979-0.709,7.292-3.257,10.497c-5.295,6.66-10.439,13.455-15.537,21.113
	c5.626,0,10.784,0.112,15.932-0.053c2.269-0.072,2.872,0.625,2.861,2.87c-0.034,7.39,0.06,7.38-7.335,7.381
	c-8.036,0.001-16.072-0.044-24.105,0.081c-2.218,0.034-3.084-0.375-3.141-2.903c-0.077-3.511,0.86-6.3,3.04-9.063
	c5.095-6.46,9.904-13.146,14.811-19.754C540.824,152.306,541.557,151.933,541.283,150.682z"/>
<path fill-rule="evenodd" clip-rule="evenodd" fill="#FFFFFF" d="M472.738,150.788c0,10.34-0.054,20.679,0.046,31.018
	c0.02,2.092-0.559,2.84-2.688,2.716c-3.002-0.175-6.022-0.135-9.031-0.063c-1.526,0.037-2.124-0.436-2.12-2.041
	c0.045-20.98,0.054-41.96,0.011-62.94c-0.004-1.759,0.641-2.256,2.287-2.204c3.008,0.094,6.029,0.165,9.029-0.006
	c2.005-0.114,2.539,0.533,2.521,2.503c-0.092,10.338-0.043,20.678-0.043,31.017C472.746,150.788,472.743,150.788,472.738,150.788z"
	/>
<path fill-rule="evenodd" clip-rule="evenodd" fill="#FFFFFF" d="M621.319,148.627c0.66-1.195,1.286-2.412,1.989-3.582
	c1.386-2.31,3.304-4.029,5.866-4.941c5.372-1.912,6.657-1.02,6.672,4.585c0.001,0.101,0.003,0.201,0.001,0.302
	c-0.04,2.507,0.77,5.529-0.354,7.378c-1.166,1.922-4.355,0.241-6.663,0.573c-4.49,0.646-7.416,3.346-7.701,8.531
	c-0.351,6.405-0.336,12.845-0.139,19.258c0.093,3.006-0.646,4.153-3.783,3.805c-2.677-0.297-5.414-0.121-8.123-0.059
	c-1.402,0.031-1.935-0.455-1.932-1.906c0.033-13.551,0.018-27.103-0.009-40.654c-0.003-1.071,0.174-1.65,1.471-1.625
	c3.41,0.067,6.826,0.059,10.235-0.06c1.543-0.054,1.873,0.611,1.83,1.957c-0.069,2.097-0.02,4.197-0.02,6.296
	C620.88,148.533,621.099,148.58,621.319,148.627z"/>
<path fill-rule="evenodd" clip-rule="evenodd" fill="#00F6FF" d="M59.508,45.823c-2.324,1.565-4.86,2.439-7.688,2.361
	c-1.024-6.221-2.105-12.432-3.042-18.666c-0.305-2.031-0.971-3.284-3.094-4.126c-5.844-2.32-8.916-7.985-7.995-13.998
	c0.954-6.238,5.596-10.669,11.868-11.332c5.517-0.583,11.225,2.977,13.372,8.34c2.274,5.68,0.445,12.112-4.824,15.674
	c-1.695,1.146-1.843,2.229-1.542,3.944C57.6,33.946,58.534,39.888,59.508,45.823z"/>
<path fill-rule="evenodd" clip-rule="evenodd" fill="#FFFFFF" d="M487.427,82.276c0,6.421-0.066,12.844,0.04,19.263
	c0.032,1.95-0.503,2.67-2.53,2.561c-3.102-0.167-6.221-0.147-9.327-0.028c-1.656,0.063-2.037-0.591-2.036-2.094
	c0.015-13.444-0.009-26.888-0.07-40.332c-0.007-1.456,0.511-1.914,1.938-1.875c3.208,0.09,6.425,0.143,9.628,0.003
	c1.834-0.08,2.434,0.464,2.406,2.335c-0.099,6.721-0.039,13.444-0.039,20.166C487.433,82.276,487.43,82.276,487.427,82.276z"/>
<path fill-rule="evenodd" clip-rule="evenodd" fill="#FFFFFF" d="M259.239,103.678c-0.235-3.141-1.364-5.872-4.714-7.011
	c0.243-2.981-1.038-5.148-3.358-6.97c-2.964-2.326-6.18-4.153-9.746-5.268c-1.89-0.59-2.501-1.579-2.346-3.493
	c0.194-2.398,0.082-4.82,0.162-7.229c0.199-5.978-2.238-10.38-7.466-13.417c-6.875-3.994-14.097-7.249-21.366-10.407
	c-1.499-0.65-2.244-1.265-1.932-3.058c1.117-6.428,2.124-12.875,3.092-19.327c0.197-1.313,1.03-1.463,2.029-1.781
	c2.652-0.843,4.862-2.366,6.434-4.715c4.315-6.448,2.751-14.7-3.565-18.839C210.44-1.784,202.225-0.02,198.128,6.1
	c-4.13,6.168-2.42,14.188,4.097,18.351c1.392,0.889,1.611,1.692,1.338,3.14c-0.986,5.226-1.925,10.464-2.759,15.717
	c-0.321,2.021-0.96,2.871-3.128,1.993c-1.757-0.712-3.651-1.089-5.486-1.606c-17.692-4.977-35.724-7.542-54.107-7.605
	c-1.255-0.004-2.579-0.397-2.55,1.791c0.139,10.242,0.143,20.486,0.194,30.729c0.003,22.313,0.006,44.626,0.008,66.939
	c0,6.37,0,12.739,0,19.541c8.012-4.573,16.248-6.669,25.134-5.635c11.365,1.322,20.657,6.281,27.211,15.815
	c2.106,3.063,1.6,6.009-0.891,7.72c-2.518,1.73-5.4,1.13-7.632-1.677c-1.127-1.417-2.215-2.842-3.621-4.016
	c-11.198-9.345-26.079-9.493-38.377-0.454c-1.439,1.059-2.055,2.121-2.048,3.941c0.066,16.881,0.026,33.764,0.049,50.646
	c0,0.713-0.42,1.604,0.597,2.236c0.726-0.648,1.488-1.275,2.189-1.965c11.58-11.375,24.916-19.669,40.509-24.629
	c12.127-3.857,24.251-7.879,35.859-13.213c6.219-2.856,12.271-5.982,17.253-10.84c3.154-3.076,5.193-6.594,5.19-11.132
	c0-2.007,0.417-4.038,0.217-6.016c-0.279-2.784,0.744-3.704,3.496-4.197c9.421-1.689,10.429-2.764,11.734-10.569
	c4.834-0.704,6.155-1.829,6.597-6.556C260.161,124.27,260.014,113.966,259.239,103.678z M177.727,121.022
	c-9.192-0.169-16.417-7.745-16.272-17.062c0.142-9.081,7.435-16.289,16.397-16.206c9.333,0.086,16.515,7.448,16.406,16.816
	C194.151,113.71,186.639,121.187,177.727,121.022z M232.91,104.925c-0.386,7.489,0.16,15.016-1.007,22.469
	c-0.264,0.004-0.529,0.009-0.794,0.013c0-5,0.124-10.002-0.025-14.998c-0.335-11.245-0.905-22.483-1.184-33.729
	c-0.165-6.622-3.485-10.855-9.221-13.597c-7.936-3.795-16.311-6.189-24.922-7.806c-5.065-0.951-10.152-1.787-15.836-2.78
	c6.378-0.289,12.102,0.25,17.805,0.899c7.974,0.907,15.905,2.107,23.493,4.882c1.787,0.653,3.542,1.404,5.274,2.193
	c4.367,1.99,6.56,5.499,6.745,10.215C233.658,83.437,233.463,94.187,232.91,104.925z"/>
<path fill-rule="evenodd" clip-rule="evenodd" fill="#FFFFFF" d="M480.364,52.472c-4.685-0.105-8.137-3.545-8.015-7.985
	c0.12-4.357,3.819-7.695,8.434-7.609c4.657,0.086,8.058,3.489,8.004,8.009C488.737,49.22,485.01,52.576,480.364,52.472z"/>
<path fill-rule="evenodd" clip-rule="evenodd" fill="#02F4FF" d="M122.711,197.736c0.037-0.197,0.106-0.395,0.106-0.592
	c0.001-6.034,0.002-12.067,0.003-18.102h-0.428c-0.272,0.487-0.798,0.74-1.751,0.762c-12.367,0.275-23.977-1.773-33.681-10.281
	c-4.46-3.91-7.944-8.486-10.175-13.97c-0.932-2.288-0.9-4.588,1.285-6.266c2.027-1.557,4.191-1.328,6.13,0.127
	c10.277,7.71,21.966,10.455,34.572,9.748c2.208-0.125,3.455,0.234,3.789,1.714h0.262c0.006-40.829,0.014-81.658,0.059-122.488
	c0.002-2.044-0.891-2.248-2.534-2.233c-16.409,0.148-32.62,1.726-48.503,6.125c-4.125,1.143-8.063,2.94-12.339,3.543
	c-2.324,1.565-4.86,2.439-7.688,2.361c-0.138,1.355-1.379,1.304-2.228,1.667c-7.181,3.067-14.131,6.595-20.933,10.419
	c-5.573,3.133-8.348,7.844-8.094,14.304c0.094,2.399-0.1,4.812,0.043,7.207c0.1,1.661-0.408,2.541-2.034,3.082
	c-2.851,0.949-5.529,2.322-8.024,4.018c-3.076,2.091-5.784,4.417-5.303,8.685c-3.418,1.07-4.46,3.815-4.685,6.964
	c-0.726,10.2-0.784,20.41,0.038,30.606c0.372,4.617,1.989,6.084,6.589,6.503c0.163,0.786,0.442,1.569,0.468,2.36
	c0.111,3.483,1.958,5.558,5.165,6.591c1.145,0.368,2.28,0.767,3.436,1.099c6.221,1.789,6.523,1.788,6.411,8.338
	c-0.101,5.901,1.852,10.592,6.331,14.27c1.855,1.523,3.809,2.957,5.846,4.224c6.415,3.987,13.307,6.985,20.4,9.538
	c19.651,7.074,39.51,13.398,60.215,16.671c7.518,1.188,7.709,1.046,7.367-6.403C122.817,198.127,122.75,197.932,122.711,197.736z
	 M29.983,78.261c-0.988,14.54-1.257,29.106-1.712,43.666c-0.082,2.606-0.012,5.218-0.167,7.825
	c-1.494-16.522-1.53-33.091-2.035-49.642c-0.39-12.764,2.254-16.504,14.476-20.414c11.877-3.799,24.203-4.673,36.567-5.158
	c0.815-0.032,1.634-0.004,2.62-0.004c-7.965,1.546-15.915,2.463-23.642,4.518c-6.126,1.628-12.104,3.628-17.753,6.549
	C33.175,68.272,30.381,72.411,29.983,78.261z M52.11,67.272c-0.858-1.959,0.953-2.016,2.069-2.492
	c4.188-1.784,8.623-2.293,13.108-2.78c5.203-0.565,10.398-0.529,15.604-0.524c0.953,0,1.991-0.332,3.292,0.727
	c-5.397,0.778-10.378,1.521-15.366,2.209c-5.171,0.713-10.117,2.342-15.12,3.722C54.219,68.541,52.85,68.962,52.11,67.272z
	 M66.308,117.415c-2.262-0.239-1.947-2.794-2.112-4.473c-0.337-3.417,0.035-6.82,1.25-10.064
	c3.028-8.085,10.515-12.538,19.042-11.376c8.02,1.092,14.078,7.639,14.941,16.164c0.102,0.998,0.131,2.002,0.211,3.277
	c-0.077,1.132-0.097,2.544-0.292,3.93c-0.144,1.018-0.608,2.038-1.788,2.136c-1.3,0.108-1.569-0.962-1.814-1.979
	c-0.521-2.156-1.241-4.228-2.557-6.058c-3.461-4.814-8.196-6.648-13.934-5.675c-5.7,0.967-8.697,4.9-10.426,10.1
	C68.315,114.945,68.912,117.69,66.308,117.415z M110.36,194.796c-0.151,1.441-2.536,1.51-4.1,1.714
	c-0.79,0.104-1.605,0.019-2.409,0.019c-6.398-0.563-12.57-2.152-18.661-4.118c-4.682-1.512-9.223-3.315-13.362-6.044
	c-1.623-1.069-2.804-2.57-4.188-3.874c-0.441-0.415-0.874-0.931-0.588-1.582c0.412-0.94,1.125-0.427,1.796-0.317
	c5.906,0.954,11.223,3.613,16.702,5.781c6.907,2.732,14.015,4.761,21.201,6.578C108.106,193.294,110.521,193.251,110.36,194.796z"/>
</svg>
